# xmcd
# Track frame offsets:
# 150
# 24331
# 37184
# 48829
# 67053
# 80718
# 95690
# 111706
# 123715
# 135066
# 155477
# 171127
# 182182
#
# Disc length: 2680 seconds
# Revision: 0
# Processed by: cddbd v1.4PL0 Copyright (c) Steve Scherf et al.
# Submitted via: VisiTrax 2.9.5.180 - For more info visit www.synapsa.com
#
DISCID=b80a760d
DTITLE=Don and Annie Kidwell - River of nightlife
DYEAR=2000
DGENRE=
TTITLE0=River of nightlife
TTITLE1=Feelin' kinda lonely tonight
TTITLE2=It's your baby, you rock it
TTITLE3=Hello Mr. Lonely
TTITLE4=Baby you're gone
TTITLE5=Nashville
TTITLE6=Where were you
TTITLE7=I feel a heartache comin' on
TTITLE8=Some days you gotta dance
TTITLE9=Rainy night in Georgia
TTITLE10=Over you
TTITLE11=Drink my hurt away
TTITLE12=Where do we go from here Annie
EXTD=
EXTT0=
EXTT1=
EXTT2=
EXTT3=
EXTT4=
EXTT5=
EXTT6=
EXTT7=
EXTT8=
EXTT9=
EXTT10=
EXTT11=
EXTT12=
PLAYORDER=
